# xmcd CD database file
#
# Track frame offsets:
#	150
#	22930
#	42977
#	60772
#	77825
#	95862
#	116145
#	133812
#	150227
#	175667
#	197665
#	224182
#
# Disc length: 4440 seconds
#
# Revision: 0
# Processed by: cddbd v1.5.1PL0 Copyright (c) Steve Scherf et al.
# Submitted via: CDex 1.51
#
DISCID=a111560c
DTITLE=Amorphis - Far From The Sun
DYEAR=2003
DGENRE=Heavy Metal
TTITLE0=Day Of Your Beliefs
TTITLE1=Planetary Misfortune
TTITLE2=Evil Inside
TTITLE3=Mourning Soil
TTITLE4=Far From The Sun
TTITLE5=Ethereal Solitude
TTITLE6=Killing Goodness
TTITLE7=God Of Deception
TTITLE8=Higher Ground
TTITLE9=Smithereens
TTITLE10=Darkrooms
TTITLE11=Data
EXTD=YEAR: 2003
EXTT0=
EXTT1=
EXTT2=
EXTT3=
EXTT4=
EXTT5=
EXTT6=
EXTT7=
EXTT8=
EXTT9=
EXTT10=
EXTT11=
PLAYORDER=
